<svg width="143" height="24" viewBox="0 0 143 24" fill="none" xmlns="http://www.w3.org/2000/svg">
<path d="M0.2 11.88C0.2 5.904 5.024 1.08 11 1.08C16.976 1.08 21.8 5.904 21.8 11.88C21.8 17.856 16.976 22.68 11 22.68C5.024 22.68 0.2 17.856 0.2 11.88ZM24.2 11.88C24.2 5.904 29.024 1.08 35 1.08C40.976 1.08 45.8 5.904 45.8 11.88C45.8 17.856 40.976 22.68 35 22.68C29.024 22.68 24.2 17.856 24.2 11.88ZM56.792 11.016H69.944V13.08H56.792V11.016ZM59.192 5.112H69.2V7.176H59.192V5.112ZM62.336 0.743999H64.544V23.016H62.336V0.743999ZM61.616 12.024L63.392 12.576C62 16.344 59.552 19.92 56.864 21.888C56.504 21.336 55.832 20.544 55.328 20.136C57.92 18.504 60.368 15.264 61.616 12.024ZM65.36 12.144C66.44 15.12 68.528 18.264 70.592 19.92C70.088 20.328 69.32 21.12 68.96 21.696C66.872 19.704 64.88 16.056 63.752 12.648L65.36 12.144ZM58.736 1.896L60.824 2.256C60.344 5.424 59.432 8.472 58.16 10.44C57.752 10.128 56.864 9.552 56.336 9.312C57.584 7.512 58.328 4.728 58.736 1.896ZM48.152 5.328H56.624V7.416H48.152V5.328ZM51.464 0.743999H53.696V23.016H51.464V0.743999ZM51.44 6.792L52.712 7.272C52.016 11.208 50.456 15.912 48.776 18.384C48.536 17.736 48.032 16.704 47.624 16.128C49.256 14.04 50.768 10.032 51.44 6.792ZM53.576 8.04C54.152 8.76 56.168 11.952 56.6 12.696L55.256 14.28C54.728 12.936 53.192 9.984 52.544 8.88L53.576 8.04ZM88.064 2.112L89.576 0.839999C90.752 1.632 92.216 2.832 92.936 3.648L91.328 5.04C90.656 4.2 89.24 2.952 88.064 2.112ZM72.272 5.064H93.752V7.272H72.272V5.064ZM73.136 10.488H83.648V12.696H73.136V10.488ZM77.168 11.712H79.424V20.088H77.168V11.712ZM72.32 20.064C75.2 19.56 79.904 18.648 84.296 17.76L84.464 19.8C80.432 20.712 76.088 21.672 72.992 22.344L72.32 20.064ZM84.32 0.839999H86.744C86.6 11.424 88.616 20.688 91.28 20.688C91.88 20.688 92.168 19.368 92.312 16.224C92.816 16.752 93.68 17.28 94.304 17.52C93.944 21.888 93.128 23.064 91.088 23.064C86.12 23.064 84.368 12.264 84.32 0.839999ZM97.28 20.016C101.504 19.896 108.176 19.656 114.344 19.392L114.272 21.48C108.296 21.792 101.864 22.08 97.568 22.248L97.28 20.016ZM97.112 12.72H117.032V14.856H97.112V12.72ZM101.288 8.112H112.664V10.2H101.288V8.112ZM103.376 14.088L105.944 14.808C104.816 17.088 103.472 19.752 102.344 21.48L100.352 20.808C101.408 18.984 102.704 16.152 103.376 14.088ZM109.208 16.608L111.152 15.552C113.36 17.424 115.664 19.992 116.768 21.816L114.704 23.088C113.648 21.264 111.296 18.504 109.208 16.608ZM106.928 2.976C104.984 5.808 101.12 9.024 97.088 10.992C96.824 10.44 96.224 9.6 95.744 9.12C99.872 7.224 103.808 3.768 105.632 0.791998H108.008C110.552 4.344 114.584 7.296 118.4 8.784C117.848 9.336 117.32 10.152 116.912 10.824C113.24 9.072 109.088 5.952 106.928 2.976ZM128.768 20.112H142.376V22.344H128.768V20.112ZM129.728 8.424H141.824V10.608H129.728V8.424ZM134.624 0.959999H136.952V21.192H134.624V0.959999ZM120.272 5.232H128.192V7.296H120.272V5.232ZM123.92 12.864L126.152 10.176V23.04H123.92V12.864ZM123.92 0.767999H126.152V6.216H123.92V0.767999ZM125.936 10.8C126.776 11.376 129.536 13.8 130.184 14.4L128.816 16.248C127.904 15.12 125.696 12.864 124.664 11.928L125.936 10.8ZM127.352 5.232H127.808L128.216 5.136L129.488 5.976C127.688 10.512 124.016 14.592 120.536 16.824C120.32 16.224 119.768 15.144 119.408 14.712C122.672 12.864 125.984 9.264 127.352 5.664V5.232Z" fill="#211613"/>
</svg>
